<svg width="512" height="472" viewBox="0 0 512 472" fill="none" xmlns="http://www.w3.org/2000/svg">
<path d="M7.69788 175.134C18.3159 168.772 37.4079 131.62 41.6569 127.379C45.9059 123.123 70.3189 113.569 70.3189 113.569L84.1139 70.0549C110.656 73.2399 126.563 115.689 127.627 118.874C127.627 118.874 130.288 192.638 248.097 163.984C332.534 143.444 383.317 123.577 425.969 163.624C428.637 159.046 430.46 154.39 431.791 149.367C434.169 140.305 434.709 129.907 434.701 118.059C434.701 112.253 434.592 106.135 434.584 99.7189C434.592 86.2829 435.077 71.4709 438.63 55.7039C442.15 39.9299 448.864 23.2869 460.656 6.70591C465.742 -0.462089 475.68 -2.15209 482.855 2.94191C490.022 8.03591 491.713 17.9729 486.619 25.1409C477.315 38.2859 472.457 50.5089 469.687 62.6919C466.948 74.8589 466.416 87.0889 466.423 99.7189C466.423 105.743 466.541 111.855 466.541 118.059C466.525 130.705 466.103 143.858 462.613 157.379C459.867 168.114 454.891 178.959 447.105 189.085C480.07 241.002 461.963 296.128 461.963 296.128L496.056 350.369C496.674 351.347 497.089 352.435 497.3 353.561L511.854 433.617C512.495 437.138 510.992 440.697 508.035 442.701L467.056 470.464C466.18 471.066 465.092 471.239 464.075 470.957C463.049 470.683 462.212 469.963 461.767 469.008L453.441 451.183C452.823 449.845 453.073 448.265 454.075 447.185L464.803 435.737C466.985 433.413 467.776 430.103 466.884 427.036L449.044 366.003C448.465 364.055 447.26 362.357 445.609 361.183L421.626 344.125C418.371 341.793 413.966 341.903 410.82 344.376C407.674 346.848 406.532 351.097 408.011 354.814L418.59 381.402C419.81 384.453 419.271 387.927 417.189 390.462L356.891 463.827H311.673C309.677 463.827 308.057 462.207 308.057 460.22V437.716C308.057 435.72 309.677 434.101 311.673 434.101H325.976C329.318 434.101 332.385 432.247 333.958 429.297L358.442 388.248C360.085 385.142 359.772 381.378 357.659 378.585L335.711 349.586C334.005 347.341 331.344 346.011 328.519 346.011H267.322C264.45 346.011 261.743 347.387 260.045 349.712C258.347 352.036 257.854 355.025 258.715 357.771L278.441 419.931C279.067 421.888 279.005 424.008 278.261 425.925L265.608 458.523H226.336V450.033L232.83 429.618C233.44 427.709 233.393 425.651 232.697 423.766L206.226 351.919C204.911 348.366 201.532 346.011 197.752 346.011H170.741C168.292 346.011 165.945 347.013 164.239 348.788L89.4259 452.153C89.4259 452.153 51.2179 452.153 38.4789 452.153C25.7409 452.153 30.6699 426.739 42.7199 425.611C65.5459 423.491 94.7239 359.813 107.462 337.521C120.201 315.236 82.7979 246.222 54.3949 243.068C25.7409 239.883 10.8809 228.201 6.63187 212.278C-1.85613 202.731 -2.92012 181.503 7.69788 175.134Z" fill="#C46B00"/>
</svg>
